<svg width="3873" height="844" viewBox="0 0 3873 844" fill="none" xmlns="http://www.w3.org/2000/svg">
<g clip-path="url(#clip0)">
<path d="M843.491 222.573H213.219V624.502H841.996V844H0V3.0752H843.491V222.573Z" fill="#4c4c4c"/>
<path d="M919.162 0H1880.1V844H919.162V0ZM1662.32 213.348H1137.03V656.999H1662.32V213.348Z" fill="#4c4c4c"/>
<path d="M1975.87 624.502H2606.23V222.573H1977.45V3.0752H2819.44V844H1975.87V624.502ZM1975.87 306.101H2193.74V844.083H1975.87V306.101V306.101Z" fill="#4c4c4c"/>
<path d="M2908.99 0H3873V844H3655.21V213.348H3131.43V842.504H2910.48L2908.99 0ZM3516.17 629.156H3276.7V414.312H3516.17V629.156Z" fill="#4c4c4c"/>
</g>
<defs>
<clipPath id="clip0">
<rect width="3873" height="844" fill="white"/>
</clipPath>
</defs>
</svg>
