<svg width="325" height="325" viewBox="0 0 325 325" fill="none" xmlns="http://www.w3.org/2000/svg">
<path fill-rule="evenodd" clip-rule="evenodd" d="M162.5 325C252.246 325 325 252.246 325 162.5C325 72.7537 252.246 0 162.5 0C72.7539 0 0 72.7537 0 162.5C0 252.246 72.7539 325 162.5 325ZM258 162.5C258 195.913 230.913 223 197.5 223C164.087 223 137 195.913 137 162.5C137 129.087 164.087 102 197.5 102C230.913 102 258 129.087 258 162.5ZM283 162.5C283 209.72 244.721 248 197.5 248C150.279 248 112 209.72 112 162.5C112 115.28 150.279 77 197.5 77C244.721 77 283 115.28 283 162.5Z" fill="#da2c57"/>
</svg>
